:SAMPLES-PER-SECOND 30
:FULLY-SPECIFIED
:DEGREES
161
root  -49.7017 41.5023 -41.0882 179.872 2.30101 179.476
RightUpLeg  -0.552071 -5.98489 -0.956695
RightLeg  3.70853 -11.6087 3.3551
RightFoot  -2.00651 0.437932 -5.52207
RightToes  2.32829e-010 0 -3.6325e-017
Spine  5.06628 -0.729357 2.39164
Spine1  0.367571 -0.180677 -2.56038
HEad  -11.7596 4.89188 0.665095
LeftShoulder1  0.203691 2.18227 -7.43876
LeftArm  -18.24 12.607 -0.466666
LeftForeArm  7.74643 -7.29454 -1.82069
LeftHand  -0.244104 0.0205437 5.32207
RightShoulder  0.123004 -2.42587 3.34174
RightArm  -19.9318 -3.55357 1.54549
RightForeArm  -9.33231 1.36689 3.81684
RightHand  -1.42859 5.56795 -15.3486
LeftUpLeg  -2.13723 3.60187 2.25126
LeftLeg  2.3373 6.39409 -2.94602
LeftFoot  -0.483549 0.0520668 -0.568134
LeftToes  -1.53708e-010 -3.96652e-011 -3.29181e-011
162
root  -49.6871 41.5034 -41.1899 -179.921 2.71883 179.564
RightUpLeg  -0.551827 -5.80805 -0.784081
RightLeg  3.50075 -11.3897 3.3178
RightFoot  -2.02098 0.427007 -5.39822
RightToes  2.32829e-010 0 -3.6325e-017
Spine  4.8729 -0.712629 2.14244
Spine1  0.514937 -0.186311 -2.47865
HEad  -11.8009 5.55032 0.72967
LeftShoulder1  0.219663 2.07016 -7.3698
LeftArm  -17.2711 12.4164 -1.58667
LeftForeArm  6.50877 -5.20345 -1.94983
LeftHand  -0.244104 0.0205437 5.32207
RightShoulder  0.230055 -1.6737 4.70119
RightArm  -19.3861 -3.25733 1.41067
RightForeArm  -7.22537 1.03226 3.82746
RightHand  -1.34551 5.56 -14.4973
LeftUpLeg  -2.20128 3.7498 2.40486
LeftLeg  2.48326 6.69972 -2.97136
LeftFoot  -0.76655 0.0475523 -0.489578
LeftToes  -1.53708e-010 -3.96652e-011 -3.29181e-011
163
root  -49.6612 41.5045 -41.3007 -179.801 2.90611 179.675
RightUpLeg  -0.363244 -5.67697 -0.615286
RightLeg  3.19711 -11.3368 3.34077
RightFoot  -2.06802 0.412147 -5.24689
RightToes  2.32829e-010 0 -3.6325e-017
Spine  4.68203 -0.733463 1.63115
Spine1  0.752123 -0.319426 -1.94071
HEad  -12.0156 6.2029 0.269943
LeftShoulder1  0.240912 1.93388 -7.42677
LeftArm  -16.285 12.4591 -2.53174
LeftForeArm  6.21336 -3.58991 -2.11955
LeftHand  -0.244104 0.0205437 5.32207
RightShoulder  0.322806 -1.11507 5.78435
RightArm  -18.8004 -2.96172 1.3132
RightForeArm  -5.54435 0.861992 3.89898
RightHand  -1.32098 5.69305 -14.0764
LeftUpLeg  -2.18733 3.90934 2.59547
LeftLeg  2.61621 6.68403 -3.00475
LeftFoot  -0.973062 0.0463815 -0.464663
LeftToes  -1.53708e-010 -3.96652e-011 -3.29181e-011
164
root  -49.6486 41.5054 -41.4104 -179.679 3.09078 179.707
RightUpLeg  -0.223728 -5.63739 -0.571294
RightLeg  2.99155 -11.178 3.37204
RightFoot  -2.14992 0.395284 -5.09165
RightToes  2.32829e-010 0 -3.6325e-017
Spine  4.55414 -0.70519 1.23383
Spine1  0.926336 -0.389587 -1.45642
HEad  -12.3832 6.23841 -0.177475
LeftShoulder1  0.279913 1.72497 -7.90084
LeftArm  -15.5764 12.6165 -2.80846
LeftForeArm  7.01918 -2.88045 -2.24766
LeftHand  -0.244104 0.0205437 5.32207
RightShoulder  0.360414 -0.921636 6.27506
RightArm  -18.3836 -2.72993 1.50249
RightForeArm  -4.81494 0.81156 3.98871
RightHand  -1.30318 5.56972 -14.0418
LeftUpLeg  -2.1166 3.953 2.65025
LeftLeg  2.61532 6.77788 -3.00401
LeftFoot  -1.07433 0.0500335 -0.517627
LeftToes  -1.53708e-010 -3.96652e-011 -3.29181e-011
165
root  -49.6559 41.5062 -41.5038 -179.474 3.35539 179.653
RightUpLeg  -0.325124 -5.6482 -0.630797
RightLeg  3.00893 -10.88 3.35342
RightFoot  -2.24515 0.3875 -5.05567
RightToes  2.32829e-010 0 -3.6325e-017
Spine  4.49523 -0.612918 1.10018
Spine1  0.970724 -0.325193 -1.30746
HEad  -12.7806 5.94487 -0.32185
LeftShoulder1  0.309941 1.59694 -8.50234
LeftArm  -15.6088 12.7529 -2.68696
LeftForeArm  7.71942 -2.9878 -2.19863
LeftHand  -0.244104 0.0205437 5.32207
RightShoulder  0.347454 -1.01919 6.29804
RightArm  -18.2848 -2.68032 1.88452
RightForeArm  -4.49157 0.856191 4.003
RightHand  -1.24227 5.12453 -13.9466
LeftUpLeg  -2.11904 3.84786 2.53849
LeftLeg  2.53905 7.17862 -2.9347
LeftFoot  -1.18482 0.0534198 -0.570638
LeftToes  -1.53708e-010 -3.96652e-011 -3.29181e-011
166
root  -49.6627 41.5069 -41.5851 -179.251 3.52955 179.617
RightUpLeg  -0.461429 -5.63406 -0.661371
RightLeg  3.01922 -10.706 3.33332
RightFoot  -2.30517 0.387842 -5.09929
RightToes  2.32829e-010 0 -3.6325e-017
Spine  4.51059 -0.558594 1.08164
Spine1  0.911486 -0.25454 -1.38949
HEad  -13.0377 5.72874 -0.190266
LeftShoulder1  0.304647 1.65312 -8.71208
LeftArm  -16.1628 12.8237 -2.61605
LeftForeArm  7.69453 -3.3764 -2.02865
LeftHand  -0.244104 0.0205437 5.32207
RightShoulder  0.336029 -1.10411 6.3183
RightArm  -18.4184 -2.81342 2.03251
RightForeArm  -4.45598 0.857168 3.9388
RightHand  -1.21462 4.85579 -13.9862
LeftUpLeg  -2.20627 3.7322 2.43244
LeftLeg  2.51119 7.51809 -2.84572
LeftFoot  -1.30815 0.0491945 -0.510785
LeftToes  -1.53708e-010 -3.96652e-011 -3.29181e-011
167
root  -49.658 41.5084 -41.6711 -179.114 3.50394 179.654
RightUpLeg  -0.367142 -5.57808 -0.61231
RightLeg  2.8071 -10.7889 3.35583
RightFoot  -2.30653 0.386043 -5.07594
RightToes  2.32829e-010 0 -3.6325e-017
Spine  4.59396 -0.597729 1.05558
Spine1  0.8071 -0.27625 -1.49661
HEad  -13.0722 5.48732 0.0723724
LeftShoulder1  0.280127 1.78247 -8.48137
LeftArm  -16.5699 12.8654 -2.60505
LeftForeArm  7.53485 -3.64491 -1.91282
LeftHand  -0.244104 0.0205437 5.32207
RightShoulder  0.351989 -1.01994 6.50809
RightArm  -18.6115 -2.95286 1.77265
RightForeArm  -4.83988 0.595705 3.84229
RightHand  -1.28213 5.06692 -14.4532
LeftUpLeg  -2.23486 3.73385 2.45634
LeftLeg  2.52506 7.49203 -2.82489
LeftFoot  -1.38864 0.0392633 -0.368936
LeftToes  -1.53708e-010 -3.96652e-011 -3.29181e-011
168
root  -49.657 41.5125 -41.7642 -179.022 3.41941 179.696
RightUpLeg  -0.188478 -5.52164 -0.565219
RightLeg  2.56004 -10.9249 3.35892
RightFoot  -2.30278 0.377084 -4.96128
RightToes  2.32829e-010 0 -3.6325e-017
Spine  4.6364 -0.649869 1.06237
Spine1  0.752647 -0.318283 -1.55849
HEad  -13.0123 5.11184 0.261043
LeftShoulder1  0.269966 1.82107 -8.21842
LeftArm  -16.5379 12.9193 -2.4231
LeftForeArm  7.68021 -3.82676 -1.93109
LeftHand  -0.244104 0.0205437 5.32207
RightShoulder  0.35953 -0.97254 6.54499
RightArm  -18.797 -2.93976 1.4578
RightForeArm  -5.17606 0.145729 3.73543
RightHand  -1.37199 5.42638 -14.9473
LeftUpLeg  -2.16266 3.79312 2.51202
LeftLeg  2.46321 7.34345 -2.88214
LeftFoot  -1.42945 0.0293254 -0.236497
LeftToes  -1.53708e-010 -3.96652e-011 -3.29181e-011
